# xmcd
#
# Track frame offsets:
#       182
#       10257
#       23127
#       37810
#       50277
#       68907
#       83152
#       97132
#       110622
#       122832
#
# Disc length: 1809 seconds
#
# Revision: 5
# Processed by: cddbd v1.5.2PL0 Copyright (c) Steve Scherf et al.
# Submitted via: FreeDbEdit v0.1
#
DISCID=7b070f0a
DTITLE=Various Artist - A Country Christmas - Celebrate the Magic
DYEAR=1995
DGENRE=Country
TTITLE0=Little Texas - Here Comes Santa Claus
TTITLE1=Travis Tritt - Winter Wonderland
TTITLE2=Tanya Tucker - Christmas to Christmas
TTITLE3=Randy Travis - God Rest Ye Merry Gentlemen
TTITLE4=Doug Stone - First Christmas
TTITLE5=Ricky Van Shelton - What Child Is This
TTITLE6=Sawyer Brown - Please Come Home for Christmas
TTITLE7=Clay Walker - Blue Christmas
TTITLE8=Carlene Carter - Rockin' Little Christmas
TTITLE9=Alan Jackson - Honky Tonk Christmas
EXTD=
EXTT0=
EXTT1=
EXTT2=
EXTT3=
EXTT4=
EXTT5=
EXTT6=
EXTT7=
EXTT8=
EXTT9=
PLAYORDER=
